<?xml version="1.0" encoding="utf-8"?>
<!-- Generator: Adobe Illustrator 27.5.0, SVG Export Plug-In . SVG Version: 6.00 Build 0)  -->
<svg version="1.1" id="Layer_2_00000133526550593697545360000013635019185554643339_"
	 xmlns="http://www.w3.org/2000/svg" xmlns:xlink="http://www.w3.org/1999/xlink" x="0px" y="0px" viewBox="0 0 213.6 92"
	 style="enable-background:new 0 0 213.6 92;" xml:space="preserve">
<style type="text/css">
	.st0{fill:#4285F4;}
	.st1{font-family:'ProductSans-Bold';}
	.st2{font-size:19.6693px;}
	.st3{fill:#DB4437;}
	.st4{fill:#F4B409;}
	.st5{fill:#0F9D58;}
	.st6{font-size:78.6773px;}
</style>
<g id="Crafticons_-_Simple_Set">
	<g id="PersonalLogoBig">
		<text transform="matrix(1 0 0 1 115.9502 86.7012)" class="st0 st1 st2">M</text>
		<text transform="matrix(1 0 0 1 132.6104 86.7012)" class="st3 st1 st2">u</text>
		<text transform="matrix(1 0 0 1 143.9004 86.7012)" class="st4 st1 st2">j</text>
		<text transform="matrix(1 0 0 1 148.8965 86.7012)" class="st0 st1 st2">a</text>
		<text transform="matrix(1 0 0 1 159.2227 86.7012)" class="st5 st1 st2">w</text>
		<text transform="matrix(1 0 0 1 174.8594 86.7012)" class="st3 st1 st2">a</text>
		<text transform="matrix(1 0 0 1 185.3828 86.7012)" class="st0 st1 st2">r</text>
		<text transform="matrix(1 0 0 1 0 68.0479)" class="st0 st1 st6">O</text>
		<text transform="matrix(1 0 0 1 64.2793 68.0479)" class="st3 st1 st6">m</text>
		<text transform="matrix(1 0 0 1 133.5156 68.0479)" class="st4 st1 st6">e</text>
		<text transform="matrix(1 0 0 1 177.2598 68.0479)" class="st5 st1 st6">r</text>
	</g>
</g>
</svg>
