<?xml version="1.0" encoding="UTF-8"?><svg id="logo-icon" xmlns="http://www.w3.org/2000/svg" viewBox="0 0 95.07 68.87"><defs><style>.cls-1{fill:#f4a000;}.cls-2{fill:#fff;}.cls-3{fill:#db4437;}.cls-4{fill:#0f9d58;}.cls-5{fill:#4285f4;}</style></defs><rect class="cls-5" x="26.2" y="0" width="68.87" height="68.87" rx="34.44" ry="34.44"/><rect class="cls-5" x="31.33" y="5.72" width="58.85" height="58.85" rx="29.43" ry="29.43"/><rect class="cls-5" x="41.66" y="15.79" width="38.16" height="38.71" rx="19.08" ry="19.08"/><path class="cls-5" d="m44.61,19.07c3.17-.47,6.51,2.83,5.69,6.36-.2.85-.38,1.71-.57,2.59,7.2-6.84,14.52-13.54,21.87-20.22-3.35-1.33-7-2.08-10.83-2.08h0c-7.5,0-14.34,2.81-19.54,7.43,2.36.75,4,3.23,3.38,5.91Z"/><path class="cls-5" d="m85.07,18.56c-2.98,1.78-5.95,3.58-8.92,5.38-.3,1.03-.94,2.01-2.02,2.76-2.51,1.75-5,3.52-7.49,5.29-.15,1.33-.82,2.63-2.19,3.58-4.55,3.18-9.22,6.19-13.84,9.28-3.66,3.59-7.14,7.35-10.26,11.42,5.29,5.13,12.47,8.3,20.42,8.3h0c16.25,0,29.43-13.17,29.43-29.43,0-6.16-1.89-11.87-5.12-16.59Z"/><rect class="cls-5" x="41.66" y="15.79" width="38.16" height="38.71" rx="19.08" ry="19.08"/><path class="cls-5" d="m82.27,15.1c-2.32.98-4.63,1.95-7,2.74-.99.82-1.9,1.73-2.71,2.66-2.82,3.23-6.87,1.18-8.04-1.98-.76.02-1.53.07-2.29.2-1.99.31-3.85-.61-5.06-2-.41.17-.83.34-1.24.52.69,2.18-.18,5.05-2.08,6.39-1.51,1.06-3.36,1.69-5.06,2.48-.08.59-.26,1.16-.55,1.69-1.24,2.23-3.33,3.65-4.61,5.8-.34,3.31.22,6.87.86,10.07,2.64-1.11,6.35.15,6.97,3.21.21,1.05.34,2.1.43,3.15.9-.27,1.92-.21,3.01.3.92-.94,2.23-1.55,3.57-1.67.33-3.45,3.69-6.49,7.12-3.87,5.11,3.91,10.19,7.85,15.15,11.94,5.8-5.37,9.43-13.05,9.43-21.58,0-7.75-3-14.8-7.9-20.05Z"/><rect class="cls-5" x="41.69" y="15.79" width="38.16" height="38.71" rx="19.08" ry="19.08"/><path class="cls-5" d="m86.41,20.77c-5.04-8.97-14.62-15.05-25.65-15.05h0c-10.71,0-20.08,5.73-25.23,14.28,1.5,1.07,3.04,2.13,4.57,3.22,6.64,4.72,13.17,9.85,20.24,13.95,2.86-1.59,5.71-3.2,8.55-4.84,3.27-2.05,6.49-4.17,9.66-6.12,2.58-1.87,5.21-3.68,7.87-5.44Z"/><rect class="cls-5" x="41.69" y="15.79" width="38.16" height="38.71" rx="19.08" ry="19.08"/><rect class="cls-2" x="26.2" y="0" width="68.87" height="68.87" rx="34.44" ry="34.44"/><rect class="cls-1" x="31.33" y="5.72" width="58.85" height="58.85" rx="29.43" ry="29.43"/><rect class="cls-2" x="41.66" y="15.79" width="38.16" height="38.71" rx="19.08" ry="19.08"/><path class="cls-4" d="m44.61,19.07c3.17-.47,6.51,2.83,5.69,6.36-.2.85-.38,1.71-.57,2.59,7.2-6.84,14.52-13.54,21.87-20.22-3.35-1.33-7-2.08-10.83-2.08h0c-7.5,0-14.34,2.81-19.54,7.43,2.36.75,4,3.23,3.38,5.91Z"/><path class="cls-4" d="m85.07,18.56c-2.98,1.78-5.95,3.58-8.92,5.38-.3,1.03-.94,2.01-2.02,2.76-2.51,1.75-5,3.52-7.49,5.29-.15,1.33-.82,2.63-2.19,3.58-4.55,3.18-9.22,6.19-13.84,9.28-3.66,3.59-7.14,7.35-10.26,11.42,5.29,5.13,12.47,8.3,20.42,8.3h0c16.25,0,29.43-13.17,29.43-29.43,0-6.16-1.89-11.87-5.12-16.59Z"/><rect class="cls-2" x="41.66" y="15.79" width="38.16" height="38.71" rx="19.08" ry="19.08"/><path class="cls-5" d="m82.27,15.1c-2.32.98-4.63,1.95-7,2.74-.99.82-1.9,1.73-2.71,2.66-2.82,3.23-6.87,1.18-8.04-1.98-.76.02-1.53.07-2.29.2-1.99.31-3.85-.61-5.06-2-.41.17-.83.34-1.24.52.69,2.18-.18,5.05-2.08,6.39-1.51,1.06-3.36,1.69-5.06,2.48-.08.59-.26,1.16-.55,1.69-1.24,2.23-3.33,3.65-4.61,5.8-.34,3.31.22,6.87.86,10.07,2.64-1.11,6.35.15,6.97,3.21.21,1.05.34,2.1.43,3.15.9-.27,1.92-.21,3.01.3.92-.94,2.23-1.55,3.57-1.67.33-3.45,3.69-6.49,7.12-3.87,5.11,3.91,10.19,7.85,15.15,11.94,5.8-5.37,9.43-13.05,9.43-21.58,0-7.75-3-14.8-7.9-20.05Z"/><rect class="cls-2" x="41.69" y="15.79" width="38.16" height="38.71" rx="19.08" ry="19.08"/><path class="cls-3" d="m86.41,20.77c-5.04-8.97-14.62-15.05-25.65-15.05h0c-10.71,0-20.08,5.73-25.23,14.28,1.5,1.07,3.04,2.13,4.57,3.22,6.64,4.72,13.17,9.85,20.24,13.95,2.86-1.59,5.71-3.2,8.55-4.84,3.27-2.05,6.49-4.17,9.66-6.12,2.58-1.87,5.21-3.68,7.87-5.44Z"/><rect class="cls-2" x="41.69" y="15.79" width="38.16" height="38.71" rx="19.08" ry="19.08"/></svg>